<svg width="40" height="40" viewBox="0 0 50 50" fill="none" xmlns="http://www.w3.org/2000/svg">
    <g clip-path="url(#clip0_916_33)">
        <path
            d="M14.0608 5.57334C15.5921 5.57334 18.3624 6.30615 22.8546 10.7312L25.0812 12.9233L27.2749 10.6952C30.3937 7.52646 33.7124 5.55771 35.9358 5.55771C38.9343 5.55771 41.2983 6.58271 43.603 8.88271C45.7749 11.0483 46.9718 13.9296 46.9718 16.9937C46.9733 20.0593 45.778 22.9421 43.5827 25.1327C43.4046 25.314 33.964 35.4983 26.0546 44.0343C25.6827 44.389 25.2562 44.4405 25.0296 44.4405C24.8062 44.4405 24.3858 44.3905 24.014 44.0452C22.0874 41.9015 8.11709 26.3687 6.49365 24.7468C4.32021 22.578 3.12334 19.6952 3.12334 16.6312C3.12334 13.5671 4.32021 10.6874 6.49521 8.51865C8.60928 6.40615 11.0843 5.57334 14.0608 5.57334ZM14.0608 2.44834C10.3233 2.44834 7.02959 3.56553 4.2874 6.30615C-1.42979 12.0077 -1.42979 21.253 4.2874 26.9577C5.92021 28.5905 21.7608 46.2124 21.7608 46.2124C22.664 47.1155 23.8483 47.564 25.0312 47.564C26.214 47.564 27.3937 47.1155 28.2983 46.2124C28.2983 46.2124 45.6265 27.5093 45.8108 27.3233C51.5249 21.6171 51.5249 12.3702 45.8108 6.66865C42.9733 3.83584 39.803 2.43115 35.9374 2.43115C32.2437 2.43115 28.1249 5.37646 25.0483 8.50146C21.8749 5.37646 17.8843 2.44834 14.0624 2.44834H14.0608Z"
            fill="white" />
    </g>
    <defs>
        <clipPath id="clip0_916_33">
            <rect width="50" height="50" fill="white" />
        </clipPath>
    </defs>
</svg>
    