<svg width="50" height="50" viewBox="0 0 50 50" fill="none" xmlns="http://www.w3.org/2000/svg">
    <path
        d="M26 3C25.7348 3.00003 25.4805 3.10539 25.2929 3.29292C25.1054 3.48045 25 3.73479 25 4V7.69727L21.168 13.4453L21.166 13.4473C21.1536 13.4664 21.1419 13.4859 21.1309 13.5059C21.1241 13.5181 21.1176 13.5305 21.1113 13.543C21.1093 13.5482 21.1074 13.5534 21.1055 13.5586C21.0773 13.6143 21.0544 13.6725 21.0371 13.7324C21.0358 13.7376 21.0345 13.7428 21.0332 13.748C21.0272 13.7706 21.022 13.7934 21.0176 13.8164C21.0117 13.8461 21.0071 13.8761 21.0039 13.9062C21.0039 13.9089 21.0039 13.9115 21.0039 13.9141C21.0014 13.9426 21.0001 13.9713 21 14C21 14.0039 21 14.0078 21 14.0117V20H5C4.73479 20 4.48045 20.1054 4.29292 20.2929C4.10539 20.4805 4.00003 20.7348 4 21V45C4.00003 45.2652 4.10539 45.5195 4.29292 45.7071C4.48045 45.8946 4.73479 46 5 46H14.2754C15.0403 46.8727 15.9621 47.5696 16.9766 48.0273C19.5578 49.1921 22.8962 48.9269 25.5371 46.8945C25.6807 46.9663 25.8395 47.0025 26 47H39H45C45.2652 47 45.5195 46.8946 45.7071 46.7071C45.8946 46.5195 46 46.2652 46 46V14C46 13.8447 45.9639 13.6916 45.8945 13.5527L43 7.76367V4C43 3.73479 42.8946 3.48045 42.7071 3.29292C42.5195 3.10539 42.2652 3.00003 42 3H26ZM27 5H41V7H27V5ZM26.5352 9H40.3828L38.3828 13H23.8691L26.5352 9ZM42 10.2363L44 14.2363V45H40V14.2363L42 10.2363ZM23 15H38V45H27.3789C27.8368 44.3847 28.2536 43.6979 28.6055 42.918C29.8275 40.2097 30.2431 37.0665 29.8691 34.2949C29.4952 31.5233 28.3109 29.0043 26.0234 27.9727C25.4516 27.7146 24.8564 27.5713 24.248 27.5234C23.8366 27.491 23.4195 27.5093 23 27.5605V21V15ZM6 22H21V28C21.0002 28.0274 21.0015 28.0548 21.0039 28.082C20.2305 28.3845 19.4682 28.787 18.7402 29.2734C16.4149 30.8273 14.3314 33.2196 13.1094 35.9277C11.7555 38.9281 11.9225 41.7662 12.9688 44H6V22ZM24.0645 29.5273C24.4753 29.5532 24.8578 29.6419 25.2012 29.7969C26.5747 30.4163 27.5672 32.1922 27.8867 34.5605C28.2063 36.9289 27.8322 39.7709 26.7832 42.0957C24.7059 46.7004 20.5861 47.4628 17.7988 46.2051C15.0115 44.9474 12.8544 41.3536 14.9316 36.75C15.9807 34.4252 17.8644 32.2654 19.8516 30.9375C20.8451 30.2736 21.8385 29.8332 22.7559 29.6367C23.2145 29.5385 23.6536 29.5015 24.0645 29.5273Z"
        fill="white" />
</svg>
    