<svg width="60" height="60" viewBox="0 0 60 60" fill="none" xmlns="http://www.w3.org/2000/svg">
    <path
        d="M52.905 31.6619C53.208 30.7064 53.25 29.7149 53.25 28.7894C53.25 25.6919 51.207 25.0229 49.6695 24.7889C48.4155 24.5969 43.995 24.4634 41.364 24.3974C41.5095 24.2159 41.6685 24.0284 41.8305 23.8334C43.197 22.2059 45.264 19.7444 45.0495 15.2444C44.9175 12.5264 44.1435 10.5479 42.7455 9.36144C41.4015 8.21544 39.9645 8.23044 39.597 8.25444C36.8835 8.28594 36.492 11.1674 36.204 13.2719C36.0195 14.6399 35.8095 16.1894 35.1525 16.6934C32.637 18.6254 29.9145 20.9459 28.7985 23.4854C27.6135 26.1764 26.4 28.4054 23.508 28.4054H22.0575V24.8024H6.75V51.0749H22.059V47.8079C25.3635 47.9084 26.8155 48.5549 28.0725 49.6169C29.9835 51.2339 31.65 51.7499 34.932 51.7499C39.117 51.7499 44.664 51.6359 47.337 51.0929C48.2325 50.9114 49.4235 50.4299 49.9995 49.1849C50.325 48.4799 50.415 47.7419 50.46 47.1779C50.472 47.0249 50.475 46.8644 50.478 46.7099C50.481 46.5434 50.487 46.2599 50.5125 46.0964C50.5425 46.0664 50.571 46.0379 50.6025 46.0019C51.0615 45.4904 51.5835 44.9069 51.837 43.9949C52.083 43.1264 52.116 42.2384 52.116 41.4929C52.116 40.8614 51.957 40.3919 51.8145 39.9794C51.777 39.8669 51.741 39.7619 51.7095 39.6569C51.762 39.5474 51.885 39.3749 51.9645 39.2594C52.128 39.0224 52.3155 38.7539 52.4355 38.4464C52.83 37.4444 52.8615 36.3809 52.8615 35.4599C52.8615 35.0519 52.8345 34.4459 52.617 33.8594C52.485 33.5054 52.302 33.2534 52.122 33.0599C52.149 33.0359 52.1745 33.0104 52.2 32.9834C52.5705 32.6039 52.758 32.1239 52.905 31.6619ZM19.818 48.8504H8.991V27.0284H19.818V48.8504ZM50.769 30.9899C50.673 31.2914 50.616 31.4009 50.5935 31.4309C50.565 31.4609 50.4975 31.5149 50.4375 31.5674C50.109 31.8464 49.5585 32.3084 49.545 33.0539C49.5375 33.4874 49.728 33.9029 50.085 34.2284C50.16 34.2989 50.2335 34.3619 50.304 34.4204C50.4915 34.5779 50.4945 34.5869 50.5125 34.6349C50.607 34.8869 50.6175 35.2259 50.6175 35.4614C50.6175 36.1799 50.5965 36.9959 50.3445 37.6394C50.3175 37.7069 50.1945 37.8839 50.1165 37.9979C49.776 38.4854 49.2675 39.2174 49.509 40.1219C49.566 40.3364 49.632 40.5254 49.689 40.6919C49.7985 41.0144 49.872 41.2289 49.872 41.4929C49.872 42.0914 49.8465 42.7859 49.677 43.4009C49.5705 43.7804 49.3485 44.0489 48.9705 44.4719C48.8745 44.5454 48.7005 44.6894 48.5655 44.9324C48.255 45.4904 48.243 46.1414 48.2325 46.6679C48.231 46.7954 48.228 46.9169 48.2205 47.0069C48.1905 47.3849 48.135 47.8709 47.958 48.2534C47.9025 48.3749 47.736 48.7394 46.878 48.9119C44.94 49.3079 40.6935 49.5239 34.926 49.5239C31.905 49.5239 30.8565 49.0529 29.5185 47.9219C27.915 46.5689 26.0445 45.7019 22.053 45.5834V30.6299H23.5035C28.098 30.6299 29.8185 26.7179 30.8445 24.3794C31.761 22.2929 34.2285 20.2124 36.519 18.4529C37.902 17.3924 38.1675 15.4499 38.4225 13.5704C38.55 12.6374 38.6805 11.6729 38.946 11.0564C39.177 10.5194 39.3795 10.4789 39.6405 10.4789C39.6825 10.4789 39.723 10.4759 39.7635 10.4729C39.771 10.4699 40.5435 10.4219 41.2875 11.0504C42.186 11.8109 42.711 13.2974 42.8085 15.3479C42.981 18.9839 41.3865 20.8829 40.1055 22.4114C39.3105 23.3579 38.5575 24.2534 38.451 25.3634C38.421 25.6724 38.5215 25.9769 38.73 26.2079C38.9385 26.4404 39.231 26.5754 39.5445 26.5814C42.591 26.6429 48.084 26.7974 49.326 26.9849C50.691 27.1934 51.0045 27.5324 51.0045 28.7879C51.009 29.5379 50.979 30.3239 50.769 30.9899Z"
        fill="white" />
</svg>
    