<svg width="596" height="108" viewBox="0 0 596 108" fill="none" xmlns="http://www.w3.org/2000/svg">
    <path
        d="M48.5113 21.7583C47.3943 21.7583 46.3139 21.9212 45.2913 22.2188C47.8902 26.1083 48.5645 29.3401 48.6081 29.5597C48.7428 30.2493 48.2952 30.9176 47.6057 31.0534C47.5218 31.0723 47.4404 31.0783 47.3589 31.0783C46.7638 31.0783 46.2312 30.6591 46.112 30.0557C46.1013 30.0049 45.4401 26.9077 42.8766 23.2296C39.3413 25.2121 36.9443 28.9942 36.9443 33.3253C36.9443 39.7015 42.1339 44.8899 48.5101 44.8899C54.8864 44.8899 60.0748 39.7015 60.0748 33.3253C60.0748 26.949 54.8887 21.7583 48.5113 21.7583ZM52.3831 30.3332C51.9025 31.8646 50.854 33.1175 49.43 33.8602C48.5609 34.316 47.6116 34.5439 46.6551 34.5439C46.0494 34.5439 45.4413 34.4529 44.8497 34.2675C43.3182 33.787 42.0642 32.7361 41.3215 31.3144C40.9968 30.6921 41.2377 29.9222 41.8611 29.5975C42.4846 29.2728 43.2533 29.5137 43.5756 30.1371C44.0055 30.9578 44.7281 31.5647 45.6101 31.841C46.4945 32.1173 47.4333 32.0347 48.2527 31.6049C49.0746 31.1774 49.6791 30.4548 49.9566 29.5692C50.2329 28.6872 50.1503 27.7484 49.7228 26.9266C49.3981 26.3067 49.639 25.538 50.26 25.2133C50.8823 24.8874 51.651 25.1295 51.9769 25.7494C52.7185 27.1734 52.8637 28.8017 52.3831 30.3332Z"
        fill="#B08EAD" />
    <path
        d="M45.0291 84.7592C40.1725 78.3274 33.1114 72.8781 25.6347 67.11C23.3203 65.3246 20.9269 63.4779 18.6231 61.6122C10.961 55.4119 3.6992 48.5492 0.000976562 39.9731V52.1412C0.000976562 66.483 10.4403 76.13 20.2255 84.0472C22.5091 85.8951 24.8931 87.7348 27.198 89.5154C34.474 95.1289 41.9992 100.936 47.0518 107.631C47.112 107.708 47.1757 107.777 47.2419 107.845V86.3025C46.3775 86.0427 45.6135 85.5196 45.0291 84.7592Z"
        fill="#B08EAD" />
    <path
        d="M71.7516 0C59.6639 0 54.1615 5.21671 49.6142 13.0489C49.3875 13.4397 48.9672 13.6818 48.5138 13.6818C48.0604 13.6818 47.6423 13.4397 47.4145 13.0489C42.8672 5.21671 37.3636 0 25.2735 0C13.0241 0 0.00472314 9.71669 0 27.7213V27.7933C0.033062 42.0997 10.4535 51.729 20.2221 59.6368C22.5034 61.4823 24.8839 63.3208 27.1888 65.0991C34.4695 70.7149 41.997 76.5244 47.0508 83.2206C47.4215 83.7023 47.9151 83.9515 48.5138 83.9515C49.1089 83.9515 49.6036 83.7024 49.9756 83.2111C55.0093 76.5267 62.5391 70.722 69.821 65.1073C72.1271 63.3255 74.517 61.4859 76.7995 59.6344C86.5847 51.7173 97.0228 42.069 97.0228 27.7296C97.0228 9.71786 84.0023 0 71.7516 0ZM48.5114 47.4334C40.7312 47.4334 34.4022 41.1055 34.4022 33.3253C34.4022 28.1806 37.1723 23.6689 41.3003 21.2046C39.907 19.5904 38.1335 17.9515 35.8782 16.4767C35.2901 16.0929 35.126 15.3042 35.5086 14.7161C35.8924 14.1293 36.6811 13.9628 37.2691 14.3477C40.0003 16.1354 42.0915 18.1262 43.6891 20.0651C45.1946 19.516 46.8193 19.2149 48.5114 19.2149C56.2916 19.2149 62.6194 25.5428 62.6194 33.3241C62.6194 41.1043 56.2916 47.4334 48.5114 47.4334Z"
        fill="#B08EAD" />
    <path
        d="M78.3995 61.6111C76.0922 63.4803 73.694 65.3282 71.3738 67.1183C63.897 72.8852 56.8359 78.3298 52.0042 84.7486C51.4149 85.5161 50.6498 86.0404 49.7866 86.3001V107.839C49.8527 107.772 49.9165 107.702 49.9767 107.623C55.0092 100.941 62.5332 95.1371 69.8092 89.5249C72.1212 87.7407 74.5111 85.8987 76.7995 84.0448C86.5846 76.1265 97.024 66.4783 97.024 52.1388V39.9673C93.3234 48.5457 86.0616 55.4096 78.3995 61.6111Z"
        fill="#B08EAD" />
    <path
        d="M144.757 62.7413H140.198C140.307 65.7805 140.524 68.3855 140.958 70.5564C141.175 71.6418 144.431 70.9905 144.54 69.5795C144.757 66.9745 144.757 64.8036 144.757 62.7413ZM156.805 45.266C153.223 45.4831 148.882 46.0258 145.842 46.7856C145.3 50.0418 144.54 54.1665 144.54 57.0971L150.835 57.3142C150.835 62.9584 151.052 65.7805 150.835 69.5795C150.51 75.2237 138.136 77.9372 136.616 71.3162C133.903 59.3765 135.097 35.063 137.702 22.6892C138.461 18.8902 145.083 15.3083 147.796 20.5183C149.099 23.0148 149.424 27.1394 149.424 30.2871C151.487 30.1786 153.223 29.6359 155.394 28.7675C155.286 25.6198 155.72 21.7123 155.394 17.5877C155.068 13.5716 154.96 9.44699 153.875 8.79574C150.293 6.62489 133.577 8.6872 131.949 10.5324C129.778 13.0289 127.499 38.1022 127.499 48.0881C127.499 53.081 127.499 61.2217 127.933 68.6026C128.367 75.2237 128.801 81.3021 130.755 83.3644C131.949 84.5583 145.517 85.101 156.371 81.3021C157.022 71.7503 157.239 55.3604 156.805 45.266ZM161.798 38.862C162.015 52.1042 161.147 73.0528 159.736 85.2096C147.688 90.6367 129.452 92.5905 125.653 88.4659C123.374 85.9694 122.289 78.3714 122.072 70.0137C121.855 62.4157 122.18 54.0579 122.397 48.8479C122.723 37.668 127.173 9.55554 129.561 6.73343C133.251 2.39174 152.681 -0.430364 157.891 2.82591C159.519 3.80279 160.821 9.22991 161.038 15.5254C161.147 20.7354 161.038 26.3796 161.147 31.264C154.634 34.7374 151.487 35.2801 144.106 35.3886C144.54 30.07 144.865 26.3796 144.214 23.449C144.106 23.1233 143.78 23.0148 143.672 23.3404C141.935 30.7213 140.524 42.3353 140.198 52.8639C140.524 49.3906 141.609 45.8087 142.478 42.4439C148.339 40.4901 154.309 39.4047 161.798 38.862ZM178.731 80.5423C179.816 63.3926 179.925 33.1092 178.514 9.9897C175.909 10.0982 172.761 10.5324 170.373 11.1837C171.241 29.0932 171.784 62.5242 171.784 80.9764C174.063 80.9764 176.451 80.9764 178.731 80.5423ZM184.918 3.80279C185.786 31.0469 184.266 65.5634 182.204 85.3181C175.474 87.3804 171.893 87.2719 165.054 87.2719C165.923 65.7805 166.574 27.3565 166.248 6.84198C171.458 4.77967 178.188 3.15153 184.918 3.80279ZM226.164 9.9897C223.993 9.88116 221.714 10.0982 219.326 10.858C219.651 17.9133 219.868 30.2871 218.674 40.273C218.349 43.4208 214.116 44.2891 213.03 41.467C208.797 30.1786 204.889 17.3706 201.525 9.12137C199.137 9.66408 196.749 10.3153 194.578 11.5093C193.927 30.1786 193.058 65.672 193.927 84.884C195.88 85.2096 198.268 85.101 200.656 84.5583C200.439 76.4176 200.005 62.4157 200.873 53.5152C201.199 50.2589 205.324 47.871 206.843 50.9102C212.379 61.9815 215.635 73.3785 218.674 81.5191C220.845 81.3021 223.125 80.9764 225.187 80.2166C226.598 61.7644 227.249 28.9846 226.164 9.9897ZM232.351 3.5857C233.002 25.4027 230.94 62.7413 228.552 83.69C223.125 87.0548 219.543 87.0548 213.464 87.9231C210.751 79.891 208.146 70.4478 205.215 62.1986C204.781 70.6649 204.889 82.0619 204.781 89.7684C199.354 91.3965 193.601 92.9161 187.631 90.3111C187.197 69.0368 189.585 29.3103 190.996 8.57865C196.315 4.45404 200.222 3.91133 206.3 2.06611C209.123 9.33845 212.162 18.6731 214.767 27.1394C215.201 19.7585 215.092 11.8349 214.984 6.29926C221.605 3.26008 226.272 2.82591 232.351 3.5857ZM258.184 62.7413H253.625C253.734 65.7805 253.951 68.3855 254.385 70.5564C254.602 71.6418 257.858 70.9905 257.967 69.5795C258.184 66.9745 258.184 64.8036 258.184 62.7413ZM270.232 45.266C266.65 45.4831 262.308 46.0258 259.269 46.7856C258.726 50.0418 257.967 54.1665 257.967 57.0971L264.262 57.3142C264.262 62.9584 264.479 65.7805 264.262 69.5795C263.936 75.2237 251.563 77.9372 250.043 71.3162C247.33 59.3765 248.523 35.063 251.128 22.6892C251.888 18.8902 258.509 15.3083 261.223 20.5183C262.525 23.0148 262.851 27.1394 262.851 30.2871C264.913 30.1786 266.65 29.6359 268.821 28.7675C268.712 25.6198 269.147 21.7123 268.821 17.5877C268.495 13.5716 268.387 9.44699 267.301 8.79574C263.719 6.62489 247.004 8.6872 245.376 10.5324C243.205 13.0289 240.926 38.1022 240.926 48.0881C240.926 53.081 240.926 61.2217 241.36 68.6026C241.794 75.2237 242.228 81.3021 244.182 83.3644C245.376 84.5583 258.944 85.101 269.798 81.3021C270.449 71.7503 270.666 55.3604 270.232 45.266ZM275.225 38.862C275.442 52.1042 274.574 73.0528 273.163 85.2096C261.114 90.6367 242.879 92.5905 239.08 88.4659C236.801 85.9694 235.715 78.3714 235.498 70.0137C235.281 62.4157 235.607 54.0579 235.824 48.8479C236.15 37.668 240.6 9.55554 242.988 6.73343C246.678 2.39174 266.107 -0.430364 271.317 2.82591C272.946 3.80279 274.248 9.22991 274.465 15.5254C274.574 20.7354 274.465 26.3796 274.574 31.264C268.061 34.7374 264.913 35.2801 257.532 35.3886C257.967 30.07 258.292 26.3796 257.641 23.449C257.532 23.1233 257.207 23.0148 257.098 23.3404C255.362 30.7213 253.951 42.3353 253.625 52.8639C253.951 49.3906 255.036 45.8087 255.904 42.4439C261.766 40.4901 267.735 39.4047 275.225 38.862ZM308.982 17.8048C309.09 15.0912 308.873 11.5093 308.33 8.57865C302.252 8.57865 292.592 9.01282 285.862 9.77262C284.668 27.2479 283.691 61.2217 284.994 84.5583C294.003 85.101 302.686 83.2558 307.679 81.3021C307.896 78.697 307.788 76.092 307.462 73.7041C303.337 74.2468 296.933 74.7895 293.026 74.681C292.266 68.7111 292.158 60.5705 292.917 54.0579L308.113 48.5223C308.33 46.3514 308.113 43.8549 307.788 41.7926L292.158 43.4208C291.94 34.6288 292.809 27.0309 293.569 20.5183C298.562 19.2158 304.966 18.3475 308.982 17.8048ZM314.409 21.6037C309.633 22.255 303.446 23.3404 299.213 24.4258C298.67 28.1163 298.019 32.8922 297.802 37.2338L312.021 35.2801C313.432 40.7072 313.54 46.4599 312.455 52.1042L297.476 58.1825C297.15 61.7644 296.933 66.3232 297.042 69.688C300.624 69.3624 306.268 68.4941 310.718 66.9745C311.695 73.9212 312.021 78.5885 311.044 85.3181C303.772 88.9 292.375 92.0478 278.698 90.9623C277.83 63.7182 280.543 24.6429 282.606 4.67113C292.266 2.93445 305.617 1.84902 313.866 1.74048C315.386 8.25303 315.386 15.5254 314.409 21.6037ZM338.179 21.9294C337.962 21.061 336.877 20.8439 336.768 21.8208C336.334 25.9454 335.574 36.0399 335.792 39.8389C335.9 41.0328 337.854 39.6218 338.071 38.1022C338.831 32.7836 338.939 24.9686 338.179 21.9294ZM343.172 38.9705C342.738 42.7695 339.699 44.9404 337.094 45.5916C335.032 46.1343 330.473 45.8087 330.039 41.467C329.713 37.5595 330.039 26.054 330.364 21.8208C330.799 16.5022 340.025 11.7264 342.413 19.7585C343.607 23.7746 343.824 33.4349 343.172 38.9705ZM354.244 80.6508C352.507 72.293 349.468 58.074 346.971 50.2589C351.422 44.9404 351.639 43.8549 351.856 39.6218C352.073 33.2178 351.856 10.5324 349.034 8.03594C347.406 6.51635 330.582 5.64801 322.115 10.2068C322.549 25.7284 323.743 57.3142 322.658 83.1473C324.937 83.0387 327.217 82.8217 329.17 82.0619C329.713 75.9835 330.364 68.6026 330.256 62.6328C330.256 60.1363 331.45 57.9654 333.404 56.88C335.683 55.6861 338.505 56.3373 339.808 59.1594C342.304 64.6951 345.995 76.5262 348.165 84.6669C350.445 83.5814 352.073 82.496 354.244 80.6508ZM358.477 82.6046C353.158 87.5975 350.662 89.2257 342.738 92.5905C340.785 82.8217 337.528 70.4478 335.14 63.7182C334.923 70.4478 334.055 78.5885 333.078 86.295C328.302 89.4427 323.418 89.8769 315.928 90.2025C318.533 59.5936 318.425 24.3173 318.533 7.1676C328.845 -0.321823 349.902 -1.19016 354.027 2.60882C357.066 5.43093 357.717 31.4811 357.174 38.9705C356.849 44.1806 356.306 46.2429 352.616 51.0187C354.569 58.7252 356.957 73.2699 358.477 82.6046ZM382.79 27.1394C382.573 26.2711 381.271 26.2711 381.162 27.0309C379.751 38.9705 379.317 54.8177 379.751 65.889C379.86 69.3624 381.814 66.6488 382.139 65.2378C384.093 55.9031 384.636 37.1253 382.79 27.1394ZM388.218 65.889C387.566 69.5795 384.636 71.7503 382.031 72.4016C379.86 72.9443 375.41 72.6187 375.084 68.277C374.107 56.5544 374.216 34.6288 375.41 22.7977C376.061 16.0681 384.853 16.8279 386.372 21.9294C389.194 31.5896 390.171 55.469 388.218 65.889ZM395.273 64.9122C396.141 57.6398 397.227 17.5877 390.823 9.77262C388.543 6.95052 373.673 5.32238 367.16 8.25303C367.703 23.9917 369.006 56.7715 368.68 82.6046C376.061 83.7985 385.83 84.884 388.76 82.9302C392.125 80.5423 394.73 69.3624 395.273 64.9122ZM399.614 65.2378C398.855 70.7734 394.404 84.884 390.171 87.9231C386.372 90.6367 372.913 90.2025 362.059 88.5744C363.687 58.6167 363.47 22.4721 363.578 5.21384C372.045 -0.864533 391.691 -0.864536 396.141 4.99675C402.545 13.3545 400.808 57.3142 399.614 65.2378ZM426.099 21.9294C425.882 21.061 424.796 20.8439 424.688 21.8208C424.254 25.9454 423.494 36.0399 423.711 39.8389C423.819 41.0328 425.773 39.6218 425.99 38.1022C426.75 32.7836 426.859 24.9686 426.099 21.9294ZM431.092 38.9705C430.658 42.7695 427.618 44.9404 425.013 45.5916C422.951 46.1343 418.392 45.8087 417.958 41.467C417.633 37.5595 417.958 26.054 418.284 21.8208C418.718 16.5022 427.944 11.7264 430.332 19.7585C431.526 23.7746 431.743 33.4349 431.092 38.9705ZM442.163 80.6508C440.426 72.293 437.387 58.074 434.891 50.2589C439.341 44.9404 439.558 43.8549 439.775 39.6218C439.992 33.2178 439.775 10.5324 436.953 8.03594C435.325 6.51635 418.501 5.64801 410.035 10.2068C410.469 25.7284 411.663 57.3142 410.577 83.1473C412.857 83.0387 415.136 82.8217 417.09 82.0619C417.633 75.9835 418.284 68.6026 418.175 62.6328C418.175 60.1363 419.369 57.9654 421.323 56.88C423.602 55.6861 426.424 56.3373 427.727 59.1594C430.223 64.6951 433.914 76.5262 436.085 84.6669C438.364 83.5814 439.992 82.496 442.163 80.6508ZM446.396 82.6046C441.078 87.5975 438.581 89.2257 430.658 92.5905C428.704 82.8217 425.448 70.4478 423.06 63.7182C422.843 70.4478 421.974 78.5885 420.997 86.295C416.221 89.4427 411.337 89.8769 403.848 90.2025C406.453 59.5936 406.344 24.3173 406.453 7.1676C416.764 -0.321823 437.821 -1.19016 441.946 2.60882C444.985 5.43093 445.636 31.4811 445.094 38.9705C444.768 44.1806 444.225 46.2429 440.535 51.0187C442.489 58.7252 444.877 73.2699 446.396 82.6046ZM480.479 17.8048C480.587 15.0912 480.37 11.5093 479.827 8.57865C473.749 8.57865 464.089 9.01282 457.359 9.77262C456.165 27.2479 455.188 61.2217 456.491 84.5583C465.5 85.101 474.183 83.2558 479.176 81.3021C479.393 78.697 479.285 76.092 478.959 73.7041C474.834 74.2468 468.43 74.7895 464.523 74.681C463.763 68.7111 463.654 60.5705 464.414 54.0579L479.61 48.5223C479.827 46.3514 479.61 43.8549 479.285 41.7926L463.654 43.4208C463.437 34.6288 464.306 27.0309 465.066 20.5183C470.059 19.2158 476.463 18.3475 480.479 17.8048ZM485.906 21.6037C481.13 22.255 474.943 23.3404 470.71 24.4258C470.167 28.1163 469.516 32.8922 469.299 37.2338L483.518 35.2801C484.929 40.7072 485.037 46.4599 483.952 52.1042L468.973 58.1825C468.647 61.7644 468.43 66.3232 468.539 69.688C472.121 69.3624 477.765 68.4941 482.215 66.9745C483.192 73.9212 483.518 78.5885 482.541 85.3181C475.269 88.9 463.872 92.0478 450.195 90.9623C449.327 63.7182 452.04 24.6429 454.103 4.67113C463.763 2.93445 477.114 1.84902 485.363 1.74048C486.883 8.25303 486.883 15.5254 485.906 21.6037ZM510.002 50.3675C510.328 49.8248 510.328 42.1183 509.677 35.7143C509.459 33.6519 508.374 33.6519 507.94 35.4972C506.637 41.5755 505.552 49.2821 506.42 50.476C506.963 51.1273 509.894 50.5846 510.002 50.3675ZM514.778 53.1896C512.499 56.88 505.009 57.0971 502.296 53.6237C500.559 51.3444 502.73 32.2409 503.815 27.465C504.684 23.7746 509.894 20.1927 512.499 26.1625C514.452 30.7213 516.732 49.9333 514.778 53.1896ZM525.849 80.6508C524.655 58.7252 521.616 25.1856 518.903 7.27614C513.584 7.05906 504.684 7.81886 498.28 9.33845C495.892 30.8298 493.395 62.9584 492.201 82.7131C495.132 83.1473 497.086 83.2558 499.799 83.1473C500.016 79.0227 500.125 73.487 501.21 69.4709C502.621 64.3694 514.127 63.284 515.863 68.4941C517.166 72.293 517.274 78.5885 517.166 82.6046C520.097 82.1704 523.027 81.4106 525.849 80.6508ZM529.648 84.884C522.485 86.9463 517.492 88.9 509.785 89.0086C510.436 83.5815 510.979 74.5724 509.785 70.6649C509.459 69.5795 505.986 70.1222 505.552 71.5332C504.032 76.4176 504.032 84.1242 503.598 89.2257C496 90.094 493.178 90.094 485.363 88.9C487.425 65.9976 491.441 29.5273 495.023 4.77967C504.575 1.74048 516.84 0.22089 524.764 0.872144C527.26 21.1696 529.323 59.268 529.648 84.884ZM592.386 81.085C591.3 60.0277 589.238 26.3796 586.525 8.47011C583.051 8.47011 578.058 8.79574 575.019 9.12137C573.499 19.3244 571.329 35.1715 568.941 44.8318C568.072 48.4137 563.296 48.1966 562.971 45.3745C561.56 33.1092 558.086 13.7887 556.024 5.86509C552.768 5.86509 547.883 6.40781 544.519 7.05906C542.348 27.2479 539.634 58.5082 539.091 82.496C541.045 83.0387 543.65 82.7131 546.147 82.1704C546.581 73.487 547.775 57.7484 550.054 44.6147C550.488 42.0097 554.83 40.7072 555.916 44.072C558.955 53.1896 561.668 69.0368 562.754 78.1543C563.948 78.48 565.576 78.5885 566.987 78.48C569.375 70.9905 573.282 54.0579 575.019 42.2268C575.453 39.2962 579.903 38.7534 580.555 41.6841C583.377 53.6237 583.377 71.7503 583.702 81.5191C586.416 81.9533 589.564 81.6277 592.386 81.085ZM595.859 85.2096C589.889 86.8377 583.702 88.2488 576.647 86.1865C576.647 79.2398 576.864 68.7111 576.539 59.268C574.259 68.6026 571.654 78.5885 569.483 84.1242C565.359 84.884 560.909 85.101 556.567 82.8216C556.133 75.8749 554.83 65.672 553.528 57.6398C551.899 68.277 550.706 80.3252 550.163 88.0317C542.89 89.7684 537.355 90.6367 532.687 87.5975C534.207 60.4619 538.223 25.8369 541.479 2.60882C547.124 1.08923 555.698 -0.430364 561.885 0.112348C563.296 5.86509 565.467 18.456 566.878 29.4188C568.506 21.061 570.135 11.1837 571.546 3.47716C576.104 2.50028 585.982 1.41486 592.06 1.5234C594.665 22.0379 595.534 60.679 595.859 85.2096Z"
        fill="#B08EAD" />
</svg>
    