<svg width="50" height="50" viewBox="0 0 50 50" fill="none" xmlns="http://www.w3.org/2000/svg">
    <path
        d="M47.0859 33.2969L46.75 32.3672C46.5024 31.7238 46.0414 31.185 45.4442 30.8409C44.8469 30.4967 44.1495 30.3681 43.4687 30.4766C43.4297 30.4844 43.3984 30.4844 43.3594 30.4922V10.5469C43.3594 10.5391 43.3516 10.5313 43.3516 10.5156C43.3512 10.4352 43.3352 10.3556 43.3047 10.2813C43.3005 10.2627 43.2953 10.2445 43.2891 10.2266C43.2812 10.2188 43.2812 10.2031 43.2734 10.1953L40.9297 5.50782C40.8656 5.37829 40.7665 5.26935 40.6436 5.19339C40.5207 5.11742 40.3789 5.07749 40.2344 5.07813H19.1406C19.0119 5.0788 18.8854 5.11124 18.7723 5.17257C18.6592 5.2339 18.563 5.32223 18.4922 5.42969L15.3672 10.1172C15.347 10.1431 15.3312 10.1721 15.3203 10.2031C15.3125 10.2266 15.2969 10.2422 15.2891 10.2656C15.2597 10.3515 15.2413 10.4408 15.2344 10.5313V25.7188C15.1172 25.7344 15 25.75 14.8828 25.7734L11.6953 26.4922V23.8281C11.6941 23.4141 11.5291 23.0174 11.2363 22.7246C10.9435 22.4319 10.5468 22.2669 10.1328 22.2656H4.29688C3.88285 22.2669 3.48614 22.4319 3.19339 22.7246C2.90063 23.0174 2.73561 23.4141 2.73438 23.8281V43.3594C2.73561 43.7734 2.90063 44.1701 3.19339 44.4629C3.48614 44.7556 3.88285 44.9206 4.29688 44.9219H10.1328C10.5468 44.9206 10.9435 44.7556 11.2363 44.4629C11.5291 44.1701 11.6941 43.7734 11.6953 43.3594V41.3203L24.6094 43.6563C26.4467 43.9944 28.3422 43.8076 30.0781 43.1172L45.3281 37.0781C46.0593 36.8054 46.6537 36.2557 46.9826 35.5481C47.3116 34.8404 47.3487 34.0317 47.0859 33.2969ZM10.1328 43.3594H4.29688V23.8281H10.1328V43.3594ZM33.2031 6.64063H39.75L41.3125 9.76563H33.2031V6.64063ZM26.9531 6.64063H31.6406V9.76563H26.9531V6.64063ZM26.9531 11.3281H31.6406V20.7031L29.7656 19.2969C29.6304 19.1955 29.4659 19.1406 29.2969 19.1406C29.1278 19.1406 28.9634 19.1955 28.8281 19.2969L26.9531 20.7031V11.3281ZM19.5625 6.64063H25.3906V9.76563H17.4766L19.5625 6.64063ZM16.7969 11.3281H25.3906V22.2656C25.389 22.4103 25.4285 22.5525 25.5046 22.6757C25.5806 22.7988 25.6901 22.8977 25.8203 22.9609C25.95 23.0268 26.0956 23.055 26.2405 23.0426C26.3854 23.0302 26.524 22.9776 26.6406 22.8906L29.2969 20.8984L31.9531 22.8906C32.0891 22.9906 32.2531 23.0453 32.4219 23.0469C32.5445 23.0491 32.6657 23.0195 32.7734 22.9609C32.9036 22.8977 33.0131 22.7988 33.0892 22.6757C33.1653 22.5525 33.2048 22.4103 33.2031 22.2656V11.3281H41.7969V30.6875C41.4062 30.7422 41.0078 30.8047 40.625 30.875C39.8359 31 39.0156 31.1406 38.2187 31.2188C36.3957 31.425 34.561 31.5111 32.7266 31.4766C31.1812 31.4269 29.6397 31.2913 28.1094 31.0703C28.1767 30.5279 28.0873 29.9775 27.8516 29.4844C27.6546 29.0886 27.3758 28.739 27.0338 28.4589C26.6917 28.1788 26.2941 27.9745 25.8672 27.8594L18.4609 25.8516C17.9175 25.7057 17.3592 25.6218 16.7969 25.6016V11.3281ZM44.75 35.625L29.5078 41.6641C28.042 42.2465 26.4417 42.4036 24.8906 42.1172L11.6953 39.7344V28.0938L15.2266 27.2969C16.1603 27.087 17.1312 27.1084 18.0547 27.3594L25.4531 29.3672C25.6653 29.4226 25.8634 29.5223 26.0344 29.6596C26.2054 29.7969 26.3454 29.9688 26.4453 30.1641C26.5301 30.3388 26.576 30.5298 26.5801 30.724C26.5841 30.9182 26.5461 31.1109 26.4688 31.2891C26.3312 31.5849 26.106 31.8312 25.8237 31.9947C25.5414 32.1582 25.2157 32.231 24.8906 32.2031L18.4687 30.875C18.2657 30.8325 18.0541 30.8725 17.8805 30.986C17.7068 31.0996 17.5854 31.2774 17.543 31.4805C17.5005 31.6835 17.5404 31.8951 17.654 32.0688C17.7675 32.2424 17.9454 32.3638 18.1484 32.4063L24.6172 33.7422C24.6423 33.7511 24.6687 33.7564 24.6953 33.7578C24.8047 33.7656 24.9062 33.7734 25.0078 33.7734C25.489 33.774 25.9641 33.6653 26.3971 33.4556C26.8302 33.2458 27.21 32.9404 27.5078 32.5625C29.2209 32.8226 30.9479 32.9818 32.6797 33.0391C34.5845 33.075 36.4896 32.9863 38.3828 32.7734C39.2266 32.6875 40.0703 32.5469 40.8828 32.4141C41.7734 32.2656 42.6953 32.1094 43.6016 32.0313C43.939 31.9688 44.2877 32.0211 44.592 32.1796C44.8964 32.3382 45.139 32.5939 45.2812 32.9063L45.6172 33.8281C45.7387 34.1815 45.7158 34.5685 45.5534 34.905C45.391 35.2415 45.1022 35.5003 44.75 35.625Z"
        fill="white" />
    <path
        d="M38.6719 24.6094H33.9844C33.5704 24.6106 33.1736 24.7756 32.8809 25.0684C32.5881 25.3611 32.4231 25.7579 32.4219 26.1719V27.7344C32.4231 28.1484 32.5881 28.5451 32.8809 28.8379C33.1736 29.1306 33.5704 29.2956 33.9844 29.2969H38.6719C39.0859 29.2956 39.4826 29.1306 39.7754 28.8379C40.0681 28.5451 40.2331 28.1484 40.2344 27.7344V26.1719C40.2331 25.7579 40.0681 25.3611 39.7754 25.0684C39.4826 24.7756 39.0859 24.6106 38.6719 24.6094ZM38.6719 27.7344H33.9844V26.1719H38.6719V27.7344Z"
        fill="white" />
</svg>
    