<svg width="20" height="20" viewBox="0 0 20 20" fill="none" xmlns="http://www.w3.org/2000/svg">
    <path
        d="M19.5466 4.8198C19.3216 5.5273 19.0183 6.14313 18.6383 6.7023L18.6541 6.6773C18.2808 7.29952 17.8349 8.01841 17.3166 8.83396C16.8722 9.47785 16.6369 9.81119 16.6108 9.83396C16.4958 9.97813 16.4158 10.1548 16.3883 10.349L16.3874 10.3548C16.4099 10.5315 16.4916 10.6856 16.6108 10.8006L16.9441 11.1723C18.7274 13.0051 19.7305 14.2684 19.9533 14.9623C19.9824 15.039 19.9991 15.1273 19.9991 15.2198C19.9991 15.3815 19.9474 15.5306 19.8599 15.6531L19.8616 15.6506C19.7149 15.8015 19.5099 15.8948 19.2833 15.8948C19.2583 15.8948 19.2324 15.894 19.2083 15.8915H19.2116H17.0191C17.0183 15.8915 17.0166 15.8915 17.0149 15.8915C16.7341 15.8915 16.4758 15.7931 16.2733 15.6298L16.2758 15.6315C15.9808 15.389 15.7183 15.1265 15.4833 14.8415L15.4758 14.8315C15.0919 14.3976 14.7513 14.0323 14.4541 13.7356C13.4641 12.7945 12.7336 12.324 12.2624 12.324C12.2449 12.3223 12.2249 12.3215 12.2041 12.3215C12.0666 12.3215 11.9383 12.364 11.8324 12.4365L11.8349 12.4348C11.7483 12.5431 11.6958 12.6831 11.6958 12.834C11.6958 12.864 11.6974 12.8923 11.7016 12.9215V12.9181C11.6791 13.1798 11.6658 13.484 11.6658 13.7915C11.6658 13.8906 11.6674 13.989 11.6699 14.0873V14.0731V15.039C11.6783 15.0781 11.6833 15.1231 11.6833 15.169C11.6833 15.3706 11.5916 15.5506 11.4483 15.6698L11.4474 15.6706C11.1249 15.8181 10.7483 15.9048 10.3508 15.9048C10.2658 15.9048 10.1824 15.9006 10.0999 15.8931L10.1108 15.894C8.79911 15.869 7.58244 15.4848 6.54827 14.8373L6.57744 14.854C5.31827 14.089 4.27494 13.0931 3.47994 11.9165L3.45744 11.8815C2.70244 10.8798 1.99827 9.74813 1.39827 8.5548L1.33994 8.42646C0.989108 7.75813 0.625775 6.93646 0.312441 6.09146L0.262441 5.9373C0.134941 5.5573 0.0424414 5.11563 0.00410807 4.65813L0.00244141 4.6373C0.00244141 4.21619 0.250219 4.00563 0.745775 4.00563H2.93744C2.95744 4.00396 2.98077 4.00313 3.00494 4.00313C3.21161 4.00313 3.40244 4.07396 3.55327 4.19313L3.55161 4.19146C3.71827 4.37396 3.84161 4.59813 3.90244 4.84813L3.90494 4.85813C4.30827 5.9973 4.73577 6.95396 5.22744 7.87063L5.17161 7.75646C5.57327 8.5648 6.01744 9.26063 6.52411 9.90313L6.50494 9.8773C6.94939 10.4229 7.29605 10.6956 7.54494 10.6956C7.55244 10.6965 7.56161 10.6965 7.57161 10.6965C7.69494 10.6965 7.80244 10.6298 7.86077 10.5298L7.86161 10.5281C7.92327 10.3698 7.95911 10.1856 7.95911 9.99396C7.95911 9.95313 7.95744 9.9123 7.95411 9.8723V9.8773V6.6448C7.93661 6.26396 7.84327 5.90813 7.68744 5.58896L7.69411 5.6048C7.59077 5.3848 7.46661 5.1948 7.31911 5.02563L7.32161 5.02896C7.18494 4.8923 7.09161 4.71313 7.06244 4.51313L7.06161 4.50813C7.06161 4.36646 7.12661 4.23896 7.22827 4.15563L7.22911 4.1548C7.32994 4.0623 7.46494 4.00646 7.61244 4.00646H7.61911H11.0741C11.0924 4.00396 11.1133 4.00313 11.1349 4.00313C11.2974 4.00313 11.4433 4.07646 11.5399 4.19146L11.5408 4.1923C11.6266 4.34896 11.6774 4.53646 11.6774 4.7348C11.6774 4.76646 11.6758 4.7973 11.6733 4.82813V4.82396V9.1348C11.6716 9.1548 11.6708 9.17813 11.6708 9.20146C11.6708 9.3548 11.7133 9.49896 11.7866 9.62146L11.7849 9.61813C11.8458 9.70813 11.9474 9.76646 12.0624 9.76646C12.2091 9.75646 12.3433 9.70813 12.4558 9.63146L12.4533 9.63313C12.6799 9.4773 12.8749 9.2998 13.0441 9.09896L13.0474 9.0948C13.5533 8.52313 14.0199 7.89146 14.4266 7.2198L14.4591 7.16146C14.7458 6.68646 15.0558 6.10146 15.3366 5.50063L15.3883 5.37813L15.7599 4.6348C15.8891 4.26313 16.2358 4.00146 16.6433 4.00146C16.6591 4.00146 16.6749 4.00146 16.6908 4.0023H16.6883H18.8808C19.473 4.0023 19.6952 4.2748 19.5474 4.8198H19.5466Z"
        fill="white" />
</svg>
    