<svg width="98" height="108" viewBox="0 0 98 108" fill="none" xmlns="http://www.w3.org/2000/svg">
    <path
        d="M48.5113 21.7583C47.3943 21.7583 46.3139 21.9212 45.2913 22.2188C47.8902 26.1083 48.5645 29.3401 48.6081 29.5597C48.7428 30.2493 48.2952 30.9176 47.6057 31.0534C47.5218 31.0723 47.4404 31.0783 47.3589 31.0783C46.7638 31.0783 46.2312 30.6591 46.112 30.0557C46.1013 30.0049 45.4401 26.9077 42.8766 23.2296C39.3413 25.2121 36.9443 28.9942 36.9443 33.3253C36.9443 39.7015 42.1339 44.8899 48.5101 44.8899C54.8864 44.8899 60.0748 39.7015 60.0748 33.3253C60.0748 26.949 54.8887 21.7583 48.5113 21.7583ZM52.3831 30.3332C51.9025 31.8646 50.854 33.1175 49.43 33.8602C48.5609 34.316 47.6116 34.5439 46.6551 34.5439C46.0494 34.5439 45.4413 34.4529 44.8497 34.2675C43.3182 33.787 42.0642 32.7361 41.3215 31.3144C40.9968 30.6921 41.2377 29.9222 41.8611 29.5975C42.4846 29.2728 43.2533 29.5137 43.5756 30.1371C44.0055 30.9578 44.7281 31.5647 45.6101 31.841C46.4945 32.1173 47.4333 32.0347 48.2527 31.6049C49.0746 31.1774 49.6791 30.4548 49.9566 29.5692C50.2329 28.6872 50.1503 27.7484 49.7228 26.9266C49.3981 26.3067 49.639 25.538 50.26 25.2133C50.8823 24.8874 51.651 25.1295 51.9769 25.7494C52.7185 27.1734 52.8637 28.8017 52.3831 30.3332Z"
        fill="#B08EAD" />
    <path
        d="M45.0293 84.7592C40.1727 78.3274 33.1116 72.8781 25.6349 67.11C23.3206 65.3246 20.9271 63.4779 18.6234 61.6122C10.9613 55.4119 3.69944 48.5492 0.0012207 39.9731V52.1412C0.0012207 66.483 10.4405 76.13 20.2257 84.0472C22.5094 85.8951 24.8934 87.7348 27.1982 89.5154C34.4743 95.1289 41.9994 100.936 47.052 107.631C47.1122 107.708 47.176 107.777 47.2421 107.845V86.3025C46.3778 86.0427 45.6138 85.5196 45.0293 84.7592Z"
        fill="#B08EAD" />
    <path
        d="M71.7516 0C59.6639 0 54.1615 5.21671 49.6142 13.0489C49.3875 13.4397 48.9672 13.6818 48.5138 13.6818C48.0604 13.6818 47.6423 13.4397 47.4145 13.0489C42.8672 5.21671 37.3636 0 25.2735 0C13.0241 0 0.00472314 9.71669 0 27.7213V27.7933C0.033062 42.0997 10.4535 51.729 20.2221 59.6368C22.5034 61.4823 24.8839 63.3208 27.1888 65.0991C34.4695 70.7149 41.997 76.5244 47.0508 83.2206C47.4215 83.7023 47.9151 83.9515 48.5138 83.9515C49.1089 83.9515 49.6036 83.7024 49.9756 83.2111C55.0093 76.5267 62.5391 70.722 69.821 65.1073C72.1271 63.3255 74.517 61.4859 76.7995 59.6344C86.5847 51.7173 97.0228 42.069 97.0228 27.7296C97.0228 9.71786 84.0023 0 71.7516 0ZM48.5114 47.4334C40.7312 47.4334 34.4022 41.1055 34.4022 33.3253C34.4022 28.1806 37.1723 23.6689 41.3003 21.2046C39.907 19.5904 38.1335 17.9515 35.8782 16.4767C35.2901 16.0929 35.126 15.3042 35.5086 14.7161C35.8924 14.1293 36.6811 13.9628 37.2691 14.3477C40.0003 16.1354 42.0915 18.1262 43.6891 20.0651C45.1946 19.516 46.8193 19.2149 48.5114 19.2149C56.2916 19.2149 62.6194 25.5428 62.6194 33.3241C62.6194 41.1043 56.2916 47.4334 48.5114 47.4334Z"
        fill="#B08EAD" />
    <path
        d="M78.3995 61.6111C76.0922 63.4803 73.694 65.3282 71.3738 67.1183C63.897 72.8852 56.8359 78.3298 52.0042 84.7486C51.4149 85.5161 50.6498 86.0404 49.7866 86.3001V107.839C49.8527 107.772 49.9165 107.702 49.9767 107.623C55.0092 100.941 62.5332 95.1371 69.8092 89.5249C72.1212 87.7407 74.5111 85.8987 76.7995 84.0448C86.5846 76.1265 97.024 66.4783 97.024 52.1388V39.9673C93.3234 48.5457 86.0616 55.4096 78.3995 61.6111Z"
        fill="#B08EAD" />
</svg>
    